<svg width="54" height="54" viewBox="0 0 54 54" fill="none" xmlns="http://www.w3.org/2000/svg">
<g clip-path="url(#clip0_98_96)">
<path d="M28.582 14.4036L27 12.3177L18.1353 24.0058C18.0137 24.1639 17.932 24.3489 17.8971 24.5453C17.8622 24.7416 17.8752 24.9435 17.935 25.1338L20.7341 34.1719L21.5494 36.8086H20.3555V41.5547H23.5195V36.9141H24.7461L23.8982 34.1719L21.099 25.1338C21.0393 24.9435 21.0263 24.7416 21.0612 24.5453C21.0961 24.3489 21.1778 24.1639 21.2994 24.0058L28.582 14.4036Z" fill="#D4E1F4"/>
<path d="M52.8398 0.527344H44.1598C44.0783 0.527946 43.9978 0.544964 43.923 0.577381C43.8483 0.609798 43.7808 0.65695 43.7247 0.716018C43.6686 0.775086 43.625 0.84486 43.5964 0.92117C43.5679 0.99748 43.555 1.07876 43.5586 1.16016V4.53516H10.4414V1.16016C10.445 1.0788 10.4321 0.997568 10.4036 0.921292C10.3751 0.845017 10.3315 0.775268 10.2755 0.716206C10.2194 0.657145 10.152 0.609983 10.0773 0.577535C10.0026 0.545086 9.92219 0.528016 9.84076 0.527344H1.16016C0.992324 0.527344 0.831366 0.594015 0.71269 0.71269C0.594015 0.831366 0.527344 0.992324 0.527344 1.16016V9.84076C0.528016 9.92219 0.545086 10.0026 0.577535 10.0773C0.609983 10.152 0.657145 10.2194 0.716206 10.2755C0.775268 10.3315 0.845017 10.3751 0.921292 10.4036C0.997568 10.4321 1.0788 10.445 1.16016 10.4414H4.53516V43.5586H1.16016C1.07876 43.555 0.99748 43.5679 0.92117 43.5964C0.84486 43.625 0.775086 43.6686 0.716018 43.7247C0.65695 43.7808 0.609798 43.8483 0.577381 43.923C0.544964 43.9978 0.527946 44.0783 0.527344 44.1598V52.8398C0.527344 53.0077 0.594015 53.1686 0.71269 53.2873C0.831366 53.406 0.992324 53.4727 1.16016 53.4727H9.84076C9.92219 53.472 10.0026 53.4549 10.0773 53.4225C10.152 53.39 10.2194 53.3429 10.2755 53.2838C10.3315 53.2247 10.3751 53.155 10.4036 53.0787C10.4321 53.0024 10.445 52.9212 10.4414 52.8398V49.4648H43.5586V52.8398C43.555 52.9212 43.5679 53.0024 43.5964 53.0787C43.6249 53.155 43.6685 53.2247 43.7245 53.2838C43.7806 53.3429 43.848 53.39 43.9227 53.4225C43.9974 53.4549 44.0778 53.472 44.1592 53.4727H52.8398C53.0077 53.4727 53.1686 53.406 53.2873 53.2873C53.406 53.1686 53.4727 53.0077 53.4727 52.8398V44.1598C53.4721 44.0783 53.455 43.9978 53.4226 43.923C53.3902 43.8483 53.3431 43.7808 53.284 43.7247C53.2249 43.6686 53.1551 43.625 53.0788 43.5964C53.0025 43.5679 52.9212 43.555 52.8398 43.5586H49.4648V10.4414H52.8398C52.9212 10.445 53.0024 10.4321 53.0787 10.4036C53.155 10.3751 53.2247 10.3315 53.2838 10.2755C53.3429 10.2194 53.39 10.152 53.4225 10.0773C53.4549 10.0026 53.472 9.92219 53.4727 9.84076V1.16016C53.4727 0.992324 53.406 0.831366 53.2873 0.71269C53.1686 0.594015 53.0077 0.527344 52.8398 0.527344ZM1.79297 1.79297H9.17578V9.17578H1.79297V1.79297ZM9.17578 52.207H1.79297V44.8242H9.17578V52.207ZM52.207 52.207H44.8242V44.8242H52.207V52.207ZM48.1992 43.5586H44.1598C44.08 43.5555 44.0005 43.569 43.9261 43.5981C43.8518 43.6272 43.7843 43.6714 43.7278 43.7278C43.6714 43.7843 43.6272 43.8518 43.5981 43.9261C43.569 44.0005 43.5555 44.08 43.5586 44.1598V48.1992H10.4414V44.1598C10.4445 44.08 10.431 44.0005 10.4019 43.9263C10.3728 43.852 10.3287 43.7845 10.2723 43.7281C10.2159 43.6716 10.1485 43.6274 10.0742 43.5983C9.99997 43.5691 9.92049 43.5556 9.84076 43.5586H5.80078V10.4414H9.84076C9.92044 10.4444 9.99988 10.4309 10.0741 10.4018C10.1483 10.3726 10.2157 10.3285 10.2721 10.2721C10.3285 10.2157 10.3726 10.1483 10.4018 10.0741C10.4309 9.99988 10.4444 9.92044 10.4414 9.84076V5.80078H43.5586V9.84076C43.5556 9.92049 43.5691 9.99997 43.5983 10.0742C43.6274 10.1485 43.6716 10.2159 43.7281 10.2723C43.7845 10.3287 43.852 10.3728 43.9263 10.4019C44.0005 10.431 44.08 10.4445 44.1598 10.4414H48.1992V43.5586ZM52.207 9.17578H44.8242V1.79297H52.207V9.17578Z" fill="#992AF5"/>
<path d="M7.69922 11.2852C7.53139 11.2852 7.37043 11.3518 7.25175 11.4705C7.13308 11.5892 7.06641 11.7501 7.06641 11.918V12.1289C7.06641 12.2967 7.13308 12.4577 7.25175 12.5764C7.37043 12.695 7.53139 12.7617 7.69922 12.7617C7.86705 12.7617 8.02801 12.695 8.14668 12.5764C8.26536 12.4577 8.33203 12.2967 8.33203 12.1289V11.918C8.33203 11.7501 8.26536 11.5892 8.14668 11.4705C8.02801 11.3518 7.86705 11.2852 7.69922 11.2852Z" fill="#992AF5"/>
<path d="M7.69922 13.6055C7.53139 13.6055 7.37043 13.6721 7.25175 13.7908C7.13308 13.9095 7.06641 14.0704 7.06641 14.2383V23.9414C7.06641 24.1092 7.13308 24.2702 7.25175 24.3889C7.37043 24.5075 7.53139 24.5742 7.69922 24.5742C7.86705 24.5742 8.02801 24.5075 8.14668 24.3889C8.26536 24.2702 8.33203 24.1092 8.33203 23.9414V14.2383C8.33203 14.0704 8.26536 13.9095 8.14668 13.7908C8.02801 13.6721 7.86705 13.6055 7.69922 13.6055Z" fill="#992AF5"/>
<path d="M27.5041 11.9355C27.4451 11.8577 27.3689 11.7946 27.2814 11.7512C27.194 11.7078 27.0977 11.6852 27 11.6852C26.9024 11.6852 26.806 11.7078 26.7186 11.7512C26.6311 11.7946 26.5549 11.8577 26.4959 11.9355L17.6311 23.6231C17.4491 23.8637 17.3268 24.144 17.2744 24.4411C17.2221 24.7382 17.2411 25.0434 17.3299 25.3317L20.7168 36.2813H20.3523C20.1853 36.2813 20.0252 36.3476 19.9071 36.4657C19.789 36.5838 19.7227 36.7439 19.7227 36.9109V41.6821C19.7227 41.8441 19.787 41.9995 19.9016 42.1141C20.0161 42.2286 20.1715 42.293 20.3335 42.293H33.6665C33.8285 42.293 33.9839 42.2286 34.0984 42.1141C34.213 41.9995 34.2773 41.8441 34.2773 41.6821V36.936C34.2768 36.7625 34.2077 36.5963 34.085 36.4736C33.9623 36.351 33.7961 36.2818 33.6226 36.2813H33.6094L36.6965 25.3005C36.775 25.018 36.7875 24.7213 36.7328 24.4332C36.6782 24.1452 36.5579 23.8736 36.3813 23.6395L27.5041 11.9355ZM27 25.3681C27.2713 25.3681 27.5366 25.4486 27.7622 25.5993C27.9878 25.7501 28.1637 25.9643 28.2675 26.215C28.3713 26.4657 28.3985 26.7416 28.3456 27.0077C28.2926 27.2738 28.162 27.5183 27.9701 27.7102C27.7782 27.902 27.5338 28.0327 27.2677 28.0856C27.0015 28.1386 26.7257 28.1114 26.475 28.0076C26.2243 27.9037 26.01 27.7279 25.8593 27.5023C25.7085 27.2766 25.6281 27.0114 25.6281 26.7401C25.6285 26.3763 25.7731 26.0276 26.0303 25.7704C26.2875 25.5132 26.6363 25.3685 27 25.3681ZM26.5781 36.2813C26.4103 36.2813 26.2493 36.348 26.1307 36.4666C26.012 36.5853 25.9453 36.7463 25.9453 36.9141C25.9453 37.0819 26.012 37.2429 26.1307 37.3616C26.2493 37.4802 26.4103 37.5469 26.5781 37.5469H33.0117V41.0274H20.9883V37.5469H22.1484C22.3163 37.5469 22.4772 37.4802 22.5959 37.3616C22.7146 37.2429 22.7813 37.0819 22.7813 36.9141C22.7813 36.7463 22.7146 36.5853 22.5959 36.4666C22.4772 36.348 22.3163 36.2813 22.1484 36.2813H22.0416L21.5918 34.8047H32.7035L32.2945 36.2813H26.5781ZM35.478 24.9471L33.0594 33.5391H21.2003L18.5391 24.9465C18.5095 24.8513 18.5031 24.7504 18.5206 24.6523C18.538 24.5541 18.5788 24.4616 18.6394 24.3825L26.3672 14.1994V24.1797C25.7417 24.3343 25.1944 24.7125 24.8286 25.2429C24.4629 25.7734 24.3039 26.4194 24.3818 27.059C24.4596 27.6986 24.7689 28.2875 25.2513 28.7147C25.7336 29.1419 26.3557 29.3778 27 29.3778C27.6443 29.3778 28.2664 29.1419 28.7487 28.7147C29.2311 28.2875 29.5404 27.6986 29.6182 27.059C29.6961 26.4194 29.5371 25.7734 29.1714 25.2429C28.8056 24.7125 28.2583 24.3343 27.6328 24.1797V14.1994L35.3731 24.3989C35.4319 24.4758 35.472 24.5654 35.4902 24.6606C35.5084 24.7557 35.5042 24.8538 35.478 24.9471Z" fill="#992AF5"/>
</g>
<defs>
<clipPath id="clip0_98_96">
<rect width="54" height="54" fill="white"/>
</clipPath>
</defs>
</svg>
