<svg width="25" height="25" viewBox="0 0 25 25" fill="none" xmlns="http://www.w3.org/2000/svg">
<g clip-path="url(#clip0_202_1619)">
<path d="M10.0725 4.5C10.2234 4.49996 10.3717 4.54051 10.5016 4.61741C10.6315 4.6943 10.7384 4.80472 10.811 4.9371L10.8539 5.02974L12.5382 9.24071C12.606 9.41012 12.617 9.59699 12.5694 9.77318C12.5219 9.94938 12.4184 10.1054 12.2746 10.2177L12.1904 10.2749L10.7807 11.1205L10.8337 11.2072C11.5047 12.2726 12.406 13.174 13.4712 13.845L13.5571 13.8972L14.4034 12.4891C14.4972 12.3325 14.6393 12.2106 14.8084 12.1418C14.9774 12.073 15.1642 12.061 15.3407 12.1075L15.4375 12.1404L19.6481 13.8248C19.7882 13.8807 19.9108 13.9733 20.003 14.0929C20.0951 14.2124 20.1535 14.3546 20.1718 14.5044L20.1777 14.6063V17.9751C20.1777 19.3706 19.0468 20.5017 17.6009 20.5C10.3765 20.0612 4.61731 14.3015 4.17773 7.02658C4.1777 6.38213 4.4239 5.76201 4.86597 5.29313C5.30804 4.82424 5.91256 4.54202 6.55584 4.50421L6.70405 4.5H10.0725Z" fill="white"/>
</g>
<defs>
<clipPath id="clip0_202_1619">
<rect width="24" height="24" fill="white" transform="translate(0.177734 0.5)"/>
</clipPath>
</defs>
</svg>
