<svg width="54" height="54" viewBox="0 0 54 54" fill="none" xmlns="http://www.w3.org/2000/svg">
<path d="M29.2825 46.1769H26.5741C26.4924 46.2678 26.4388 46.3804 26.4198 46.5011C26.4007 46.6218 26.4171 46.7455 26.4669 46.8571C26.5167 46.9687 26.5978 47.0635 26.7004 47.1299C26.803 47.1964 26.9226 47.2317 27.0448 47.2316H30.3372C30.4554 47.232 30.573 47.247 30.6875 47.2762C30.6092 46.9627 30.4284 46.6842 30.1739 46.4851C29.9194 46.286 29.6057 46.1775 29.2825 46.1769Z" fill="#D4E1F4"/>
<path d="M30.1716 37.6815H27.8754C27.7937 37.7723 27.74 37.885 27.721 38.0057C27.702 38.1264 27.7184 38.2501 27.7682 38.3617C27.818 38.4733 27.8991 38.5681 28.0017 38.6345C28.1042 38.701 28.2239 38.7363 28.3461 38.7361H31.2264C31.3655 38.7365 31.5039 38.756 31.6378 38.794C31.5479 38.4742 31.356 38.1925 31.0914 37.9917C30.8268 37.7909 30.5038 37.682 30.1716 37.6815Z" fill="#D4E1F4"/>
<path d="M21.8455 33.5391C22.0282 33.9211 22.3154 34.2436 22.6737 34.4693C23.0321 34.695 23.447 34.8145 23.8705 34.8142H31.4265C31.5088 34.8144 31.5909 34.8224 31.6717 34.8379C31.6143 34.535 31.4531 34.2616 31.2159 34.0648C30.9786 33.8679 30.6801 33.76 30.3718 33.7595H22.8156C22.4798 33.7596 22.1483 33.6843 21.8455 33.5391Z" fill="#D4E1F4"/>
<path d="M30.2367 41.9943H27.8754C27.7937 42.0851 27.74 42.1978 27.721 42.3185C27.702 42.4392 27.7184 42.5629 27.7682 42.6745C27.818 42.7861 27.8991 42.8809 28.0017 42.9473C28.1042 43.0138 28.2239 43.0491 28.3461 43.049H31.2915C31.4122 43.0494 31.5323 43.0649 31.6492 43.0951C31.5694 42.7808 31.3873 42.502 31.1316 42.3027C30.8758 42.1033 30.561 41.9948 30.2367 41.9943Z" fill="#D4E1F4"/>
<path d="M10.8607 34.4355H12.1011C13.2058 34.4355 14.3182 34.076 15.5015 33.3361C15.9204 33.0742 16.0921 32.5585 16.2911 31.9614C16.6783 30.7989 17.1173 29.481 19.1121 29.481H22.2265L21.9854 28.4263H18.0574C16.0626 28.4263 15.6236 29.7442 15.2364 30.9067C15.0375 31.5038 14.8657 32.0195 14.4468 32.2814C13.2635 33.0213 12.1512 33.3808 11.0464 33.3808H9.80606V46.0942H10.8607V34.4355Z" fill="#D4E1F4"/>
<path d="M18.5663 19.6716C18.4846 19.3047 18.552 18.9204 18.7536 18.6032C18.9552 18.286 19.2746 18.0619 19.6415 17.9802C20.3063 17.832 20.9654 17.6573 21.6188 17.4561L21.2836 15.9535C20.6025 16.1649 19.9143 16.3482 19.2192 16.5036C18.8523 16.5853 18.5329 16.8094 18.3313 17.1266C18.1297 17.4438 18.0623 17.8282 18.144 18.195L19.0355 22.1968C19.0726 22.3616 19.139 22.5183 19.2316 22.6595L18.5663 19.6716Z" fill="#D4E1F4"/>
<path d="M29.9359 13.1155L38.0465 6.87532L42.1875 25.4663L42.2007 25.4691L37.7293 5.39844L29.6188 11.6386C27.4558 13.2975 25.0513 14.615 22.4891 15.5453L22.8171 17.0175C25.3752 16.0877 27.776 14.7718 29.9359 13.1155Z" fill="#D4E1F4"/>
<path d="M42.3428 13.4473C42.728 13.6906 43.061 14.008 43.3226 14.3809C43.5843 14.7538 43.7693 15.175 43.8671 15.6199C43.8843 15.6971 43.8979 15.7746 43.9093 15.852C43.9862 15.3559 43.9545 14.849 43.8164 14.3664C43.6784 13.8838 43.4372 13.4369 43.1095 13.0565C42.7819 12.6762 42.3756 12.3715 41.9187 12.1635C41.4619 11.9556 40.9653 11.8492 40.4633 11.8519L40.6997 12.9132C41.2839 12.9488 41.8494 13.1326 42.3428 13.4473Z" fill="#D4E1F4"/>
<path d="M3.375 31.6899H8.54044V30.6352H2.32031V48.5242H3.375V31.6899Z" fill="#D4E1F4"/>
<path d="M19.0359 22.1968L18.1444 18.195C18.0627 17.8282 18.1301 17.4439 18.3317 17.1267C18.5333 16.8095 18.8527 16.5853 19.2196 16.5036C19.914 16.3489 20.6021 16.1656 21.284 15.9535L22.8302 22.8933C22.1236 22.9911 21.4227 23.1171 20.7273 23.2714C20.3606 23.3528 19.9765 23.2853 19.6594 23.0839C19.3424 22.8824 19.1181 22.5634 19.0359 22.1968ZM32.209 23.2621C30.3313 22.849 28.4142 22.6411 26.4916 22.6422C25.6915 22.6422 24.8927 22.6786 24.0952 22.7515L22.4897 15.5461C25.0519 14.6158 27.4564 13.2983 29.6194 11.6394L37.73 5.39924L42.2013 25.4699L32.209 23.2621ZM43.4091 17.1788C43.0534 17.7413 42.5423 18.1885 41.9376 18.4665L40.4639 11.8516C41.0867 11.8482 41.6988 12.0126 42.2361 12.3275C42.7734 12.6425 43.216 13.0963 43.5173 13.6413C43.8186 14.1863 43.9676 14.8024 43.9485 15.4249C43.9295 16.0474 43.7432 16.6532 43.4091 17.1788ZM45.1026 14.2899C44.8576 13.1889 44.2273 12.2116 43.3254 11.5342C42.4235 10.8568 41.3093 10.5239 40.1836 10.5954L38.7492 4.15334C38.7259 4.04953 38.6768 3.95327 38.6065 3.87343C38.5361 3.79359 38.4468 3.73274 38.3468 3.69649C38.2468 3.66024 38.1392 3.64975 38.0341 3.66601C37.9289 3.68226 37.8296 3.72472 37.7451 3.78947L28.8478 10.6354C25.9219 12.8802 22.5425 14.4612 18.9443 15.2687C18.6004 15.3451 18.275 15.4886 17.9865 15.6908C17.6981 15.8931 17.4524 16.1502 17.2633 16.4475C17.0743 16.7447 16.9457 17.0763 16.8848 17.4233C16.824 17.7703 16.8321 18.1258 16.9087 18.4697L17.801 22.4722C17.9565 23.1663 18.3809 23.7704 18.9812 24.1519C19.5815 24.5335 20.3086 24.6615 21.003 24.5078C21.0305 24.5014 21.0579 24.4962 21.0853 24.4898L21.696 27.1603L21.9849 28.4259L22.9152 32.4938H24.166L23.0913 27.6718L23.0871 27.6518L22.3288 24.2504C23.264 24.0948 24.2074 23.9923 25.1543 23.9435L26.0022 27.7741L26.0697 28.0789L27.0464 32.4938L28.2994 32.5097L28.0483 31.3485L27.4166 28.4259L27.1434 27.1603L26.4399 23.9076C28.2879 23.9033 30.1309 24.101 31.9359 24.4972L42.8983 26.9188C42.9429 26.9292 42.9886 26.9345 43.0344 26.9346C43.1293 26.9347 43.223 26.9134 43.3085 26.8724C43.3941 26.8314 43.4693 26.7716 43.5286 26.6976C43.588 26.6236 43.6299 26.5371 43.6514 26.4447C43.6728 26.3523 43.6732 26.2562 43.6524 26.1636L42.217 19.7226C43.2662 19.3092 44.1334 18.5348 44.6624 17.5388C45.1914 16.5428 45.3475 15.3908 45.1026 14.2899Z" fill="#992AF5"/>
<path d="M49.3916 14.3322C49.0956 12.9967 48.4128 11.778 47.4283 10.8283C46.4439 9.87856 45.2015 9.23987 43.8562 8.99197C43.6912 8.9614 43.5208 8.99764 43.3825 9.09272C43.2441 9.1878 43.1493 9.33393 43.1187 9.49896C43.0881 9.664 43.1243 9.83442 43.2194 9.97273C43.3145 10.1111 43.4606 10.2059 43.6257 10.2365C44.7262 10.4404 45.7425 10.9635 46.548 11.7405C47.3536 12.5176 47.9128 13.5144 48.1562 14.6069C48.3996 15.6994 48.3164 16.8393 47.9168 17.8848C47.5173 18.9304 46.8192 19.8353 45.9093 20.4871C45.7769 20.5864 45.6886 20.7335 45.6634 20.8971C45.6382 21.0606 45.6781 21.2276 45.7744 21.3621C45.8708 21.4966 46.0161 21.588 46.179 21.6167C46.342 21.6454 46.5097 21.6091 46.6463 21.5156C47.759 20.7204 48.6128 19.615 49.101 18.3374C49.5893 17.0599 49.6903 15.6668 49.3916 14.3322Z" fill="#992AF5"/>
<path d="M44.5251 5.71218C44.3601 5.68162 44.1897 5.71787 44.0514 5.81296C43.913 5.90805 43.8182 6.05419 43.7876 6.21922C43.7571 6.38426 43.7933 6.55467 43.8884 6.69298C43.9835 6.83128 44.1296 6.92615 44.2947 6.95671C46.0356 7.27939 47.6432 8.10685 48.9175 9.33616C50.1918 10.5655 51.0765 12.1423 51.4615 13.8705C51.8465 15.5988 51.7148 17.402 51.0828 19.056C50.4509 20.71 49.3465 22.1416 47.9072 23.1727C47.7707 23.2705 47.6787 23.4184 47.6513 23.584C47.6239 23.7496 47.6635 23.9193 47.7612 24.0557C47.8589 24.1922 48.0069 24.2842 48.1725 24.3116C48.3381 24.339 48.5077 24.2994 48.6442 24.2017C50.2854 23.026 51.5446 21.3936 52.2652 19.5078C52.9858 17.6219 53.1359 15.5658 52.6969 13.5952C52.2579 11.6247 51.2492 9.82676 49.7962 8.42512C48.3432 7.02348 46.5102 6.08003 44.5251 5.71218Z" fill="#992AF5"/>
<path d="M33.1963 27.8733V27.7932C33.1963 27.6253 33.1296 27.4644 33.0109 27.3457C32.8923 27.227 32.7313 27.1603 32.5635 27.1603H27.1434L27.4166 28.426H31.9085C31.6807 31.127 29.7791 31.3485 29.1716 31.3485H28.0484L28.2994 32.5097L27.0612 32.5603L27.0464 32.4939H22.8161C22.574 32.4941 22.3403 32.4049 22.1601 32.2433C21.9798 32.0817 21.8656 31.8592 21.8394 31.6185C21.8212 31.4517 21.7375 31.2989 21.6067 31.1937C21.4758 31.0886 21.3086 31.0398 21.1417 31.0579C20.9749 31.0761 20.8221 31.1598 20.717 31.2907C20.6118 31.4215 20.563 31.5888 20.5812 31.7556C20.6408 32.3065 20.902 32.816 21.3146 33.1859C21.7271 33.5558 22.2619 33.7601 22.8161 33.7595H30.3718C30.7229 33.7595 31.0596 33.899 31.3078 34.1472C31.556 34.3954 31.6955 34.7321 31.6955 35.0832C31.6955 35.4342 31.556 35.7709 31.3078 36.0191C31.0596 36.2673 30.7229 36.4068 30.3718 36.4068H28.5704C28.5347 36.4068 28.4991 36.4099 28.4639 36.4163H27.2911C27.1233 36.4163 26.9623 36.4829 26.8436 36.6016C26.725 36.7203 26.6583 36.8813 26.6583 37.0491C26.6583 37.2169 26.725 37.3779 26.8436 37.4966C26.9623 37.6152 27.1233 37.6819 27.2911 37.6819H30.1714C30.5755 37.6819 30.963 37.8424 31.2487 38.1281C31.5344 38.4138 31.6949 38.8013 31.6949 39.2054C31.6949 39.6095 31.5344 39.997 31.2487 40.2827C30.963 40.5684 30.5755 40.7289 30.1714 40.7289H27.2911C27.1233 40.7289 26.9623 40.7956 26.8436 40.9142C26.725 41.0329 26.6583 41.1939 26.6583 41.3617C26.6583 41.5295 26.725 41.6905 26.8436 41.8092C26.9623 41.9278 27.1233 41.9945 27.2911 41.9945H30.2368C30.6237 41.9945 30.9947 42.1482 31.2682 42.4217C31.5418 42.6953 31.6955 43.0663 31.6955 43.4532C31.6955 43.84 31.5418 44.211 31.2682 44.4846C30.9947 44.7581 30.6237 44.9118 30.2368 44.9118H25.9907C25.8228 44.9118 25.6619 44.9785 25.5432 45.0971C25.4245 45.2158 25.3579 45.3768 25.3579 45.5446C25.3579 45.7124 25.4245 45.8734 25.5432 45.9921C25.6619 46.1107 25.8228 46.1774 25.9907 46.1774H29.2823C29.6667 46.1774 30.0353 46.3301 30.307 46.6019C30.5788 46.8736 30.7315 47.2422 30.7315 47.6266C30.7315 48.0109 30.5788 48.3795 30.307 48.6512C30.0353 48.923 29.6667 49.0757 29.2823 49.0757H23.1894C21.0916 49.0757 19.0688 48.9892 17.3781 47.9408C15.4334 46.7328 13.1895 46.0931 10.9002 46.0941H9.80649V33.3809H11.0468C12.1511 33.3809 13.2637 33.0212 14.4471 32.2819C14.8658 32.0193 15.0377 31.5035 15.236 30.9066C15.6241 29.7443 16.0629 28.426 18.0573 28.426H21.985L21.696 27.1603H18.0573C15.1506 27.1603 14.425 29.3372 14.0358 30.5069C13.9493 30.7674 13.8312 31.1207 13.7531 31.223C12.786 31.8231 11.9 32.1153 11.0468 32.1153H9.80649V30.0027C9.80649 29.8349 9.73981 29.6739 9.62114 29.5553C9.50246 29.4366 9.3415 29.3699 9.17367 29.3699H1.6875C1.51967 29.3699 1.35871 29.4366 1.24003 29.5553C1.12136 29.6739 1.05469 29.8349 1.05469 30.0027V49.1569C1.05469 49.3247 1.12136 49.4857 1.24003 49.6044C1.35871 49.723 1.51967 49.7897 1.6875 49.7897H9.17367C9.3415 49.7897 9.50246 49.723 9.62114 49.6044C9.73981 49.4857 9.80649 49.3247 9.80649 49.1569V47.3597H10.9002C12.9538 47.3593 14.9666 47.9328 16.7115 49.0156C18.6848 50.2401 20.9018 50.3413 23.1894 50.3413H29.2823C29.7952 50.3419 30.2978 50.1971 30.7317 49.9236C31.1656 49.6502 31.5131 49.2594 31.7339 48.7965C31.9547 48.3335 32.0398 47.8175 31.9792 47.3082C31.9186 46.7989 31.7149 46.3172 31.3917 45.919C31.8091 45.7239 32.1701 45.4261 32.441 45.0535C32.7118 44.6808 32.8837 44.2455 32.9404 43.7883C32.9971 43.3311 32.9368 42.867 32.7652 42.4394C32.5935 42.0119 32.3162 41.6349 31.9591 41.3438C32.2697 41.0852 32.5202 40.762 32.6932 40.3968C32.8662 40.0316 32.9576 39.6331 32.961 39.229C32.9644 38.8249 32.8798 38.4249 32.713 38.0568C32.5461 37.6887 32.3011 37.3614 31.995 37.0976C32.4125 36.7619 32.7155 36.3048 32.8622 35.7896C33.0088 35.2743 32.9919 34.7262 32.8138 34.2209C32.6356 33.7157 32.3051 33.2782 31.8676 32.9688C31.4302 32.6595 30.9076 32.4935 30.3718 32.4939H30.1968C32.0488 32.0404 33.1963 30.3276 33.1963 27.8733ZM8.54044 31.6899V48.5242H2.32031V30.6352H8.54044V31.6899Z" fill="#992AF5"/>
<path d="M31.7027 29.481C31.8126 29.1387 31.8817 28.7847 31.9087 28.4263H27.417L27.645 29.481H31.7027Z" fill="#992AF5"/>
</svg>
