<svg width="54" height="54" viewBox="0 0 54 54" fill="none" xmlns="http://www.w3.org/2000/svg">
<path d="M11.2503 41.4714L8.99965 32.8546C8.80822 32.1237 8.79618 31.3574 8.96457 30.6208C9.13296 29.8843 9.47679 29.1993 9.96679 28.6242L9.55019 27.0295L9.1916 27.1234C8.59473 27.279 8.03438 27.5508 7.54261 27.9231C7.05084 28.2954 6.63729 28.7611 6.3256 29.2933C6.01391 29.8256 5.8102 30.4141 5.72612 31.0252C5.64204 31.6363 5.67924 32.2579 5.83558 32.8546L8.08629 41.4714C8.40132 42.6764 9.1821 43.7069 10.2569 44.3362C11.3317 44.9656 12.6124 45.1423 13.8175 44.8274L14.1761 44.7335L14.1639 44.6871C13.4552 44.4254 12.8202 43.9963 12.3129 43.4364C11.8056 42.8766 11.4411 42.2024 11.2503 41.4714Z" fill="#D4E1F4"/>
<path d="M27 4.46851C17.8155 4.46851 10.3359 11.9407 10.3359 21.1252V26.6836H11.6016V21.1254C11.6016 12.6387 18.5134 5.73434 27 5.73434C35.4866 5.73434 42.3984 12.6385 42.3984 21.1254V26.6836H43.6641V21.1254C43.6641 11.9407 36.1845 4.46851 27 4.46851Z" fill="#992AF5"/>
<path d="M27 1.31488C16.0766 1.31488 7.17188 10.2018 7.17188 21.1254V27.7383H8.4375V21.1254C8.4375 10.8999 16.7745 2.58072 27 2.58072C37.2255 2.58072 45.5625 10.8997 45.5625 21.1254V27.7383H46.8281V21.1254C46.8281 10.2018 37.9234 1.31488 27 1.31488Z" fill="#992AF5"/>
<path d="M9.93705 44.8822C10.7505 45.3614 11.6773 45.6145 12.6214 45.6152C13.0791 45.6149 13.5349 45.556 13.9776 45.44L17.8483 44.4286C17.9287 44.4076 18.0042 44.371 18.0704 44.3208C18.1367 44.2706 18.1924 44.2079 18.2344 44.1362C18.2764 44.0645 18.3039 43.9852 18.3152 43.9029C18.3266 43.8205 18.3216 43.7368 18.3006 43.6564L13.6749 25.9516C13.6324 25.7893 13.5273 25.6504 13.3825 25.5656C13.2377 25.4807 13.0651 25.4569 12.9027 25.4993L9.03202 26.5106C7.66539 26.8694 6.49685 27.7555 5.78278 28.9747C5.0687 30.1939 4.86739 31.6466 5.22302 33.014L7.47435 41.6308C7.64945 42.3087 7.95727 42.9451 8.38 43.5032C8.80272 44.0613 9.33195 44.53 9.93705 44.8822ZM6.4473 32.6942C6.18797 31.6963 6.31716 30.6372 6.80875 29.731C7.30034 28.8247 8.11767 28.1389 9.09551 27.8121L10.4941 33.1717C10.5295 33.3071 10.6087 33.4269 10.7194 33.5124C10.8301 33.598 10.966 33.6444 11.1059 33.6445C11.2025 33.6444 11.2978 33.6222 11.3845 33.5795C11.4712 33.5369 11.547 33.4749 11.6061 33.3985C11.6651 33.322 11.7059 33.233 11.7252 33.1383C11.7445 33.0436 11.7419 32.9458 11.7176 32.8523L10.319 27.4825L12.6104 26.8838L16.9162 43.3639L14.6233 43.963L12.821 37.0703C12.7856 36.935 12.7063 36.8152 12.5957 36.7297C12.485 36.6442 12.3491 36.5978 12.2093 36.5977C12.1126 36.5977 12.0172 36.62 11.9304 36.6627C11.8437 36.7053 11.7679 36.7673 11.7088 36.8439C11.6497 36.9205 11.609 37.0095 11.5897 37.1043C11.5704 37.199 11.5731 37.2969 11.5975 37.3905L13.3987 44.2733C12.3857 44.4686 11.3363 44.2711 10.4635 43.7209C9.59078 43.1708 8.96009 42.3091 8.69948 41.3108L6.4473 32.6942Z" fill="#992AF5"/>
<path d="M44.9681 26.5106L41.0974 25.4993C40.935 25.4569 40.7624 25.4807 40.6176 25.5656C40.4728 25.6504 40.3677 25.7893 40.3252 25.9516L35.6994 43.6563C35.657 43.8186 35.6808 43.9912 35.7655 44.136C35.8556 44.2816 35.9988 44.3865 36.1648 44.4285L39.3398 45.2546V46.7165C39.3334 47.391 39.0612 48.0357 38.5824 48.5107C38.1036 48.9857 37.4568 49.2528 36.7823 49.2539H31.2188V48.1604C31.2188 47.5789 30.7074 47.1445 30.126 47.1445H23.874C23.2926 47.1445 22.7812 47.5789 22.7812 48.1604V51.6303C22.7883 51.919 22.9053 52.1941 23.1084 52.3993C23.3116 52.6045 23.5854 52.7244 23.874 52.7344H30.126C30.4146 52.7244 30.6884 52.6046 30.8915 52.3994C31.0947 52.1941 31.2117 51.9191 31.2188 51.6304V50.5195H36.7823C37.7924 50.5181 38.761 50.1177 39.477 49.4053C40.1931 48.693 40.5987 47.7266 40.6055 46.7165V45.552C40.8653 45.5954 41.1283 45.6166 41.3917 45.6152C42.5676 45.6109 43.7091 45.2178 44.6383 44.4972C45.5675 43.7765 46.2323 42.7688 46.529 41.6309L48.7788 33.0141C49.134 31.6465 48.9323 30.1938 48.2179 28.9746C47.5036 27.7554 46.3348 26.8693 44.9681 26.5106ZM29.9531 51.4688H24.0469V48.4102H29.9531V51.4688ZM41.3896 26.884L43.6776 27.4818L39.3715 43.9617L37.0836 43.3639L41.3896 26.884ZM47.5527 32.6944L45.3013 41.3112C45.0405 42.31 44.4092 43.1721 43.5357 43.7222C42.6622 44.2723 41.612 44.4692 40.5985 44.2729L44.8996 27.8108C45.8787 28.1366 46.6973 28.8223 47.1899 29.7289C47.6825 30.6356 47.8122 31.6955 47.5527 32.6942V32.6944Z" fill="#992AF5"/>
</svg>
