<svg width="54" height="54" viewBox="0 0 54 54" fill="none" xmlns="http://www.w3.org/2000/svg">
<path d="M16.7643 3.05862H13.6002C13.2422 3.05492 12.8869 3.12225 12.5551 3.2567C12.2232 3.39115 11.9213 3.59005 11.6668 3.84192C11.4123 4.09378 11.2102 4.3936 11.0723 4.72404C10.9344 5.05448 10.8633 5.40899 10.8633 5.76705V21.6032C10.8613 22.3318 11.1483 23.0315 11.6613 23.5489C12.1744 24.0662 12.8716 24.3591 13.6002 24.3633H16.7643C16.0357 24.3591 15.3384 24.0662 14.8254 23.5489C14.3124 23.0315 14.0254 22.3318 14.0274 21.6032V5.76705C14.0274 5.40899 14.0984 5.05448 14.2364 4.72404C14.3743 4.3936 14.5763 4.09378 14.8308 3.84192C15.0853 3.59005 15.3873 3.39115 15.7191 3.2567C16.051 3.12225 16.4062 3.05492 16.7643 3.05862Z" fill="#D4E1F4"/>
<path d="M22.9331 24.3633H19.7691C21.7688 24.3633 22.661 25.4391 23.0861 26.6404C23.5111 27.8416 23.4689 29.1558 23.5997 29.6262C23.6176 29.6884 23.6366 29.7084 23.6556 29.6789C23.6556 29.6789 25.3589 29.1443 26.3516 26.9623C26.3208 26.8546 26.2883 26.747 26.2501 26.6404C25.8251 25.4391 24.9328 24.3633 22.9331 24.3633Z" fill="#D4E1F4"/>
<path d="M50.2031 43.7774V17.1044C50.2067 16.5884 50.1078 16.0769 49.912 15.5995C49.7162 15.1221 49.4275 14.6884 49.0626 14.3236C48.6977 13.9588 48.2639 13.6701 47.7865 13.4744C47.3091 13.2787 46.7975 13.1798 46.2816 13.1836H43.1367V14.4492H46.2814C46.6312 14.4454 46.9782 14.5115 47.3022 14.6437C47.6261 14.7758 47.9204 14.9713 48.1678 15.2186C48.4152 15.466 48.6107 15.7603 48.7429 16.0842C48.8751 16.4081 48.9412 16.7552 48.9375 17.105V43.664H45.8789V18.1372C45.8752 17.9682 45.8052 17.8074 45.6839 17.6896C45.5627 17.5719 45.3999 17.5065 45.2309 17.5078H43.1367V18.7734H44.6133V43.664H33.0637C32.9589 43.6679 32.8565 43.6969 32.7653 43.7488C32.6741 43.8006 32.5967 43.8736 32.5397 43.9617L31.3973 45.668H22.6012L21.4586 43.9617C21.4016 43.8736 21.3243 43.8005 21.2331 43.7487C21.1419 43.6969 21.0395 43.6679 20.9347 43.664H9.38671V18.7734H10.7578V17.5078H8.76908C8.60003 17.5065 8.43728 17.5719 8.31602 17.6896C8.19476 17.8074 8.12473 17.9682 8.12108 18.1372V43.664H5.06249V17.1044C5.05922 16.7547 5.12569 16.4079 5.25801 16.0843C5.39034 15.7606 5.58586 15.4666 5.83315 15.2193C6.08044 14.9721 6.37453 14.7767 6.69823 14.6444C7.02193 14.5122 7.36875 14.4458 7.7184 14.4492H10.8633V13.1836H7.71766C7.20188 13.1805 6.69061 13.2798 6.21349 13.4757C5.73638 13.6717 5.3029 13.9604 4.9382 14.3251C4.57349 14.6899 4.28481 15.1234 4.08889 15.6005C3.89297 16.0776 3.79371 16.5889 3.79686 17.1047V43.7765C2.99932 43.9059 2.26467 44.2887 1.70173 44.8683C1.33285 45.2336 1.03999 45.6684 0.840066 46.1475C0.640143 46.6266 0.537114 47.1406 0.536929 47.6597C0.53636 48.1758 0.637968 48.687 0.835894 49.1636C1.03382 49.6403 1.32415 50.073 1.69014 50.4369C2.05612 50.8008 2.49053 51.0887 2.9683 51.2838C3.44608 51.479 3.95777 51.5777 4.47387 51.5742H49.5263C50.509 51.5739 51.456 51.2052 52.1802 50.541C52.9044 49.8767 53.3533 48.9651 53.4383 47.986C53.5233 47.007 53.2382 46.0316 52.6392 45.2525C52.0403 44.4734 51.1711 43.9471 50.2031 43.7774ZM51.4221 49.5397C51.1729 49.7873 50.8769 49.9828 50.5513 50.1148C50.2257 50.2468 49.8772 50.3126 49.5259 50.3086H4.47408C4.1229 50.3123 3.77448 50.2463 3.44901 50.1144C3.12354 49.9825 2.82751 49.7872 2.5781 49.54C2.32869 49.2927 2.13085 48.9984 1.99607 48.6741C1.86129 48.3498 1.79225 48.002 1.79296 47.6508C1.79129 46.9355 2.07194 46.2485 2.57392 45.739C3.0759 45.2295 3.75867 44.9386 4.47387 44.9297H20.599L21.7416 46.6359C21.7986 46.724 21.876 46.7971 21.9672 46.8489C22.0584 46.9007 22.1608 46.9298 22.2656 46.9336H31.7329C31.8377 46.9298 31.9401 46.9007 32.0313 46.8489C32.1225 46.7971 32.1998 46.724 32.2568 46.6359L33.3993 44.9297H49.5255C50.0575 44.9343 50.5764 45.0958 51.0171 45.3939C51.4579 45.692 51.8009 46.1134 52.0033 46.6055C52.2057 47.0976 52.2585 47.6384 52.155 48.1603C52.0516 48.6822 51.7965 49.162 51.4217 49.5397H51.4221Z" fill="#992AF5"/>
<path d="M14.0284 41.4492H19.5856C19.7534 41.4492 19.9144 41.3825 20.033 41.2639C20.1517 41.1452 20.2184 40.9842 20.2184 40.8164C20.2184 40.6486 20.1517 40.4876 20.033 40.3689C19.9144 40.2503 19.7534 40.1836 19.5856 40.1836H14.0284C13.8606 40.1836 13.6996 40.2503 13.5809 40.3689C13.4623 40.4876 13.3956 40.6486 13.3956 40.8164C13.3956 40.9842 13.4623 41.1452 13.5809 41.2639C13.6996 41.3825 13.8606 41.4492 14.0284 41.4492Z" fill="#992AF5"/>
<path d="M23.0741 40.1836C22.9063 40.1836 22.7453 40.2503 22.6267 40.3689C22.508 40.4876 22.4413 40.6486 22.4413 40.8164C22.4413 40.9842 22.508 41.1452 22.6267 41.2639C22.7453 41.3825 22.9063 41.4492 23.0741 41.4492H34.7147C34.8825 41.4492 35.0435 41.3825 35.1622 41.2639C35.2809 41.1452 35.3475 40.9842 35.3475 40.8164C35.3475 40.6486 35.2809 40.4876 35.1622 40.3689C35.0435 40.2503 34.8825 40.1836 34.7147 40.1836H23.0741Z" fill="#992AF5"/>
<path d="M39.9716 40.1836H37.4308C37.263 40.1836 37.1021 40.2503 36.9834 40.3689C36.8647 40.4876 36.798 40.6486 36.798 40.8164C36.798 40.9842 36.8647 41.1452 36.9834 41.2639C37.1021 41.3825 37.263 41.4492 37.4308 41.4492H39.9716C40.1394 41.4492 40.3004 41.3825 40.4191 41.2639C40.5377 41.1452 40.6044 40.9842 40.6044 40.8164C40.6044 40.6486 40.5377 40.4876 40.4191 40.3689C40.3004 40.2503 40.1394 40.1836 39.9716 40.1836Z" fill="#992AF5"/>
<path d="M14.0284 37.7578H15.9567C16.1245 37.7578 16.2855 37.6911 16.4042 37.5725C16.5228 37.4538 16.5895 37.2928 16.5895 37.125C16.5895 36.9572 16.5228 36.7962 16.4042 36.6775C16.2855 36.5589 16.1245 36.4922 15.9567 36.4922H14.0284C13.8606 36.4922 13.6996 36.5589 13.5809 36.6775C13.4623 36.7962 13.3956 36.9572 13.3956 37.125C13.3956 37.2928 13.4623 37.4538 13.5809 37.5725C13.6996 37.6911 13.8606 37.7578 14.0284 37.7578Z" fill="#992AF5"/>
<path d="M18.6574 36.4922C18.4896 36.4922 18.3286 36.5589 18.2099 36.6775C18.0913 36.7962 18.0246 36.9572 18.0246 37.125C18.0246 37.2928 18.0913 37.4538 18.2099 37.5725C18.3286 37.6911 18.4896 37.7578 18.6574 37.7578H20.057C20.2248 37.7578 20.3858 37.6911 20.5044 37.5725C20.6231 37.4538 20.6898 37.2928 20.6898 37.125C20.6898 36.9572 20.6231 36.7962 20.5044 36.6775C20.3858 36.5589 20.2248 36.4922 20.057 36.4922H18.6574Z" fill="#992AF5"/>
<path d="M39.9716 36.4922H22.7792C22.6114 36.4922 22.4504 36.5589 22.3318 36.6775C22.2131 36.7962 22.1464 36.9572 22.1464 37.125C22.1464 37.2928 22.2131 37.4538 22.3318 37.5725C22.4504 37.6911 22.6114 37.7578 22.7792 37.7578H39.9716C40.1394 37.7578 40.3004 37.6911 40.4191 37.5725C40.5377 37.4538 40.6044 37.2928 40.6044 37.125C40.6044 36.9572 40.5377 36.7962 40.4191 36.6775C40.3004 36.5589 40.1394 36.4922 39.9716 36.4922Z" fill="#992AF5"/>
<path d="M14.0284 33.4336H15.5876C15.7554 33.4336 15.9163 33.3669 16.035 33.2482C16.1537 33.1296 16.2204 32.9686 16.2204 32.8008C16.2204 32.6329 16.1537 32.472 16.035 32.3533C15.9163 32.2346 15.7554 32.168 15.5876 32.168H14.0284C13.8606 32.168 13.6996 32.2346 13.5809 32.3533C13.4623 32.472 13.3956 32.6329 13.3956 32.8008C13.3956 32.9686 13.4623 33.1296 13.5809 33.2482C13.6996 33.3669 13.8606 33.4336 14.0284 33.4336Z" fill="#992AF5"/>
<path d="M18.3245 33.4336H23.174C23.3419 33.4336 23.5028 33.3669 23.6215 33.2482C23.7402 33.1296 23.8068 32.9686 23.8068 32.8008C23.8068 32.6329 23.7402 32.472 23.6215 32.3533C23.5028 32.2346 23.3419 32.168 23.174 32.168H18.3245C18.1566 32.168 17.9957 32.2346 17.877 32.3533C17.7583 32.472 17.6917 32.6329 17.6917 32.8008C17.6917 32.9686 17.7583 33.1296 17.877 33.2482C17.9957 33.3669 18.1566 33.4336 18.3245 33.4336Z" fill="#992AF5"/>
<path d="M25.8962 33.4336H39.9716C40.1394 33.4336 40.3004 33.3669 40.4191 33.2482C40.5378 33.1296 40.6044 32.9686 40.6044 32.8008C40.6044 32.6329 40.5378 32.472 40.4191 32.3533C40.3004 32.2346 40.1394 32.168 39.9716 32.168H25.8962C25.7283 32.168 25.5674 32.2346 25.4487 32.3533C25.33 32.472 25.2634 32.6329 25.2634 32.8008C25.2634 32.9686 25.33 33.1296 25.4487 33.2482C25.5674 33.3669 25.7283 33.4336 25.8962 33.4336Z" fill="#992AF5"/>
<path d="M19.1953 11.8691C19.5102 11.8691 19.8281 11.7184 19.8281 11.4304V6.14708C19.8281 5.87107 19.5239 5.70021 19.2464 5.70021C19.1418 5.69937 19.0404 5.73588 18.9604 5.80315L18.0082 6.52909C17.9303 6.58056 17.8663 6.65057 17.8222 6.73284C17.778 6.8151 17.7549 6.90705 17.755 7.00043C17.755 7.2545 17.9285 7.52872 18.2045 7.52872C18.3049 7.52841 18.4018 7.49138 18.4768 7.42462L18.5627 7.34457V11.4304C18.5625 11.6887 18.8222 11.8691 19.1953 11.8691Z" fill="#992AF5"/>
<path d="M26.0508 7.68346C26.0508 6.41509 25.3426 5.71667 24.0428 5.71667C22.7482 5.71646 22.043 6.41509 22.043 7.68346V9.95103C22.043 11.2195 22.7482 11.918 24.0428 11.918C25.3426 11.918 26.0508 11.2195 26.0508 9.95124V7.68346ZM24.7852 9.95103C24.7852 10.5013 24.5392 10.7802 24.0429 10.7802C23.5465 10.7802 23.3086 10.5093 23.3086 9.95124V7.68346C23.3086 7.12542 23.5449 6.85416 24.0429 6.85416C24.5408 6.85416 24.7852 7.13312 24.7852 7.68346V9.95103Z" fill="#992AF5"/>
<path d="M29.3203 11.8691C29.6352 11.8691 29.9531 11.7184 29.9531 11.4304V6.14708C29.9531 5.87107 29.6624 5.70021 29.3851 5.70021C29.2826 5.6994 29.1834 5.736 29.106 5.80315L28.1568 6.52909C28.0791 6.58065 28.0154 6.65072 27.9714 6.73299C27.9275 6.81526 27.9047 6.90716 27.9051 7.00043C27.9051 7.2545 28.0726 7.52872 28.3486 7.52872C28.4473 7.52836 28.5422 7.49125 28.6149 7.42462L28.6872 7.34457V11.4304C28.6875 11.6887 28.9472 11.8691 29.3203 11.8691Z" fill="#992AF5"/>
<path d="M36.2812 9.95124V7.68346C36.2812 6.41509 35.573 5.71667 34.2732 5.71667C32.9787 5.71646 32.2734 6.41509 32.2734 7.68346V9.95103C32.2734 11.2195 32.9787 11.918 34.2732 11.918C35.573 11.918 36.2812 11.2195 36.2812 9.95124ZM33.5391 9.95124V7.68346C33.5391 7.12542 33.7754 6.85416 34.2733 6.85416C34.7713 6.85416 35.0156 7.13312 35.0156 7.68346V9.95103C35.0156 10.5013 34.7697 10.7802 34.2733 10.7802C33.777 10.7802 33.5391 10.5093 33.5391 9.95124Z" fill="#992AF5"/>
<path d="M20.1404 21.6722C21.4402 21.6722 22.1484 20.9737 22.1484 19.7053V17.4377C22.1484 16.1695 21.4402 15.4709 20.1404 15.4709C18.8459 15.4709 18.1406 16.1695 18.1406 17.4377V19.7053C18.1406 20.9737 18.8459 21.6722 20.1404 21.6722ZM19.4062 17.4376C19.4062 16.8796 19.6426 16.6083 20.1404 16.6083C20.6382 16.6083 20.8828 16.8874 20.8828 17.4376V19.7052C20.8828 20.2555 20.6368 20.5346 20.1404 20.5346C19.6441 20.5346 19.4062 20.2634 19.4062 19.7053V17.4376Z" fill="#992AF5"/>
<path d="M25.418 21.6236C25.7329 21.6236 26.0508 21.4729 26.0508 21.1849V15.9016C26.0508 15.6255 25.7279 15.4546 25.4505 15.4546C25.3432 15.4537 25.2388 15.4901 25.1552 15.5575L24.1984 16.2835C24.1201 16.3348 24.0558 16.4047 24.0112 16.487C23.9665 16.5693 23.943 16.6613 23.9427 16.7549C23.9427 17.009 24.112 17.2831 24.3882 17.2831C24.4949 17.283 24.5984 17.2462 24.6814 17.179L24.785 17.099V21.1849C24.7851 21.4431 25.0448 21.6236 25.418 21.6236Z" fill="#992AF5"/>
<path d="M30.2654 21.6722C31.5652 21.6722 32.2734 20.9737 32.2734 19.7053V17.4377C32.2734 16.1695 31.5652 15.4709 30.2654 15.4709C28.9709 15.4709 28.2656 16.1695 28.2656 17.4377V19.7053C28.2656 20.9737 28.9709 21.6722 30.2654 21.6722ZM29.5312 17.4376C29.5312 16.8796 29.7676 16.6083 30.2654 16.6083C30.7632 16.6083 31.0078 16.8874 31.0078 17.4376V19.7052C31.0078 20.2555 30.7618 20.5346 30.2654 20.5346C29.7691 20.5346 29.5312 20.2634 29.5312 19.7053V17.4376Z" fill="#992AF5"/>
<path d="M34.5397 17.2831C34.6425 17.2829 34.7418 17.246 34.8198 17.179L34.9102 17.099V21.1849C34.9102 21.4431 35.1698 21.6236 35.543 21.6236C35.8579 21.6236 36.1758 21.4729 36.1758 21.1849V15.9016C36.1758 15.6255 35.8666 15.4546 35.5893 15.4546C35.484 15.4537 35.3818 15.4902 35.3009 15.5575L34.3476 16.2835C34.2695 16.3349 34.2054 16.4049 34.1611 16.4871C34.1167 16.5694 34.0935 16.6615 34.0935 16.7549C34.0935 17.009 34.2637 17.2831 34.5397 17.2831Z" fill="#992AF5"/>
<path d="M14.6602 6.22266C14.6602 6.05482 14.5935 5.89387 14.4748 5.77519C14.3561 5.65651 14.1952 5.58984 14.0273 5.58984C13.8595 5.58984 13.6986 5.65651 13.5799 5.77519C13.4612 5.89387 13.3945 6.05482 13.3945 6.22266V6.43359C13.3945 6.60143 13.4612 6.76238 13.5799 6.88106C13.6986 6.99973 13.8595 7.06641 14.0273 7.06641C14.1952 7.06641 14.3561 6.99973 14.4748 6.88106C14.5935 6.76238 14.6602 6.60143 14.6602 6.43359V6.22266Z" fill="#992AF5"/>
<path d="M14.0273 7.91016C13.8595 7.91016 13.6986 7.97683 13.5799 8.0955C13.4612 8.21418 13.3945 8.37514 13.3945 8.54297V18.2461C13.3945 18.4139 13.4612 18.5749 13.5799 18.6936C13.6986 18.8122 13.8595 18.8789 14.0273 18.8789C14.1952 18.8789 14.3561 18.8122 14.4748 18.6936C14.5935 18.5749 14.6602 18.4139 14.6602 18.2461V8.54297C14.6602 8.37514 14.5935 8.21418 14.4748 8.0955C14.3561 7.97683 14.1952 7.91016 14.0273 7.91016Z" fill="#992AF5"/>
<path d="M40.4285 2.42578H13.5715C12.6854 2.42578 11.8356 2.77778 11.209 3.40435C10.5825 4.03092 10.2305 4.88072 10.2305 5.76682V21.6034C10.2331 22.5024 10.5914 23.3638 11.2271 23.9995C11.8628 24.6352 12.7242 24.9935 13.6232 24.9961H19.7686C22.2893 24.9961 22.6825 26.9381 22.8694 28.9359C22.8862 29.2257 22.9269 29.5137 22.991 29.7969C23.0194 29.9297 23.0876 30.0506 23.1864 30.1437C23.2852 30.2367 23.41 30.2975 23.5442 30.3178C23.6814 30.3362 23.8208 30.311 23.9429 30.2458C24.4641 30.0459 26.8628 28.946 27.5177 25.2914C27.5341 25.2065 27.5801 25.1302 27.6476 25.0761C27.715 25.022 27.7995 24.9936 27.8859 24.9961H33.6445C33.8124 24.9961 33.9733 24.9294 34.092 24.8107C34.2107 24.6921 34.2773 24.5311 34.2773 24.3633C34.2773 24.1954 34.2107 24.0345 34.092 23.9158C33.9733 23.7971 33.8124 23.7305 33.6445 23.7305H27.8859C27.5026 23.7278 27.1305 23.8605 26.8354 24.1051C26.5402 24.3498 26.3408 24.6907 26.2723 25.0679C25.8893 27.2049 24.8252 28.2616 24.1221 28.7382C23.9744 27.1701 23.5842 23.7305 19.7692 23.7305H13.6005C13.0424 23.7305 12.5071 23.5088 12.1125 23.1141C11.7178 22.7194 11.4961 22.1842 11.4961 21.6261V5.76682C11.4961 5.21639 11.7148 4.6885 12.104 4.29928C12.4932 3.91007 13.0211 3.69141 13.5715 3.69141H40.3995C40.9576 3.69141 41.4929 3.91312 41.8875 4.30778C42.2822 4.70243 42.5039 5.2377 42.5039 5.79582V21.6261C42.5039 22.1842 42.2822 22.7194 41.8875 23.1141C41.4929 23.5088 40.9576 23.7305 40.3995 23.7305H38.0742C37.9064 23.7305 37.7454 23.7971 37.6268 23.9158C37.5081 24.0345 37.4414 24.1954 37.4414 24.3633C37.4414 24.5311 37.5081 24.6921 37.6268 24.8107C37.7454 24.9294 37.9064 24.9961 38.0742 24.9961H40.3995C41.2933 24.9961 42.1505 24.641 42.7825 24.009C43.4145 23.377 43.7695 22.5198 43.7695 21.6261V5.76682C43.7695 4.88072 43.4175 4.03092 42.791 3.40435C42.1644 2.77778 41.3146 2.42578 40.4285 2.42578Z" fill="#992AF5"/>
</svg>
