<svg width="54" height="54" viewBox="0 0 54 54" fill="none" xmlns="http://www.w3.org/2000/svg">
<path d="M38.0137 41.0803L14.6066 17.6732L14.0792 18.2006L38.0137 42.135L39.6664 40.4824L39.139 39.9551L38.0137 41.0803Z" fill="#D4E1F4"/>
<path d="M38.7953 6.89617L35.4006 10.2908L29.0008 16.6907L29 16.6914L28.9994 16.6921L25.4329 20.2587L26.3277 21.1536L29.4475 18.0338L32.2741 20.8603C32.3327 20.9199 32.4025 20.9672 32.4795 20.9997C32.5565 21.0321 32.6391 21.049 32.7226 21.0493C32.8062 21.0496 32.8889 21.0334 32.9662 21.0016C33.0434 20.9698 33.1136 20.923 33.1727 20.8639C33.2317 20.8048 33.2785 20.7346 33.3103 20.6574C33.3421 20.5801 33.3583 20.4974 33.3579 20.4138C33.3576 20.3303 33.3407 20.2477 33.3083 20.1707C33.2758 20.0937 33.2284 20.0239 33.1689 19.9653L30.3423 17.1388L35.8478 11.6333L37.5206 13.3061C37.5791 13.3662 37.6489 13.4141 37.726 13.4469C37.8032 13.4798 37.886 13.497 37.9698 13.4976C38.0537 13.4981 38.1368 13.482 38.2143 13.4502C38.2919 13.4184 38.3623 13.3715 38.4216 13.3122C38.4809 13.2529 38.5278 13.1825 38.5596 13.1049C38.5914 13.0274 38.6075 12.9443 38.6069 12.8604C38.6063 12.7766 38.5891 12.6937 38.5562 12.6166C38.5234 12.5395 38.4755 12.4697 38.4154 12.4112L36.7426 10.7384L39.69 7.79097C39.7692 7.71199 39.8765 7.66765 39.9884 7.66765C40.1002 7.66765 40.2075 7.71199 40.2868 7.79097L46.2088 13.713C46.2878 13.7922 46.3321 13.8995 46.3321 14.0114C46.3321 14.1232 46.2878 14.2305 46.2088 14.3097L32.8459 27.6726L33.7407 28.5675L47.1036 15.2046C47.2603 15.0479 47.3846 14.8618 47.4695 14.6571C47.5543 14.4524 47.5979 14.2329 47.5979 14.0113C47.5979 13.7897 47.5543 13.5702 47.4695 13.3655C47.3846 13.1608 47.2603 12.9747 47.1036 12.818L41.1816 6.89585C40.8648 6.58 40.4357 6.40265 39.9884 6.40271C39.5411 6.40277 39.112 6.58023 38.7953 6.89617Z" fill="#992AF5"/>
<path d="M12.8183 47.1038C13.135 47.4198 13.5641 47.5972 14.0115 47.5972C14.4588 47.5972 14.888 47.4198 15.2047 47.1038L28.6461 33.6624L27.7513 32.7675L14.3099 46.2089C14.2307 46.2879 14.1234 46.3323 14.0115 46.3323C13.8997 46.3323 13.7924 46.2879 13.7132 46.2089L7.79109 40.2869C7.71212 40.2077 7.66778 40.1004 7.66778 39.9886C7.66778 39.8767 7.71212 39.7694 7.79109 39.6902L16.6469 30.8344L19.4734 33.661C19.5925 33.7781 19.7529 33.8434 19.9198 33.8427C20.0868 33.842 20.2467 33.7753 20.3647 33.6573C20.4827 33.5392 20.5493 33.3793 20.55 33.2124C20.5507 33.0454 20.4853 32.885 20.3682 32.766L17.5417 29.9394L21.2323 26.2487L20.3375 25.3538L16.2 29.4913L16.1992 29.492L16.1984 29.4929L6.89608 38.7952C6.73937 38.9519 6.61507 39.138 6.53026 39.3427C6.44545 39.5474 6.40179 39.7669 6.40179 39.9885C6.40179 40.2101 6.44545 40.4296 6.53026 40.6343C6.61507 40.839 6.73937 41.0251 6.89608 41.1818L12.8183 47.1038Z" fill="#992AF5"/>
<path d="M12.2305 39.3113C12.1717 39.3701 12.1251 39.4398 12.0933 39.5166C12.0615 39.5934 12.0451 39.6757 12.0451 39.7588C12.0451 39.8419 12.0615 39.9242 12.0933 40.001C12.1251 40.0778 12.1717 40.1476 12.2305 40.2063L13.7936 41.7695C13.9123 41.8881 14.0733 41.9548 14.2411 41.9548C14.409 41.9548 14.5699 41.8881 14.6886 41.7694C14.8073 41.6507 14.8739 41.4898 14.8739 41.3219C14.8739 41.1541 14.8072 40.9931 14.6885 40.8745L13.1254 39.3113C13.0067 39.1926 12.8458 39.126 12.6779 39.126C12.5101 39.126 12.3492 39.1926 12.2305 39.3113Z" fill="#992AF5"/>
<path d="M37.6538 43.549C37.6624 43.555 37.671 43.5606 37.6799 43.566C37.7068 43.5831 37.735 43.5981 37.7643 43.6109C37.7689 43.6128 37.7732 43.6154 37.7779 43.6173C37.8053 43.6283 37.8335 43.6373 37.8622 43.6444L44.6228 45.3101C44.7285 45.3361 44.8392 45.3344 44.9441 45.3052C45.049 45.2759 45.1446 45.2201 45.2216 45.1431C45.2986 45.0661 45.3545 44.9705 45.3837 44.8656C45.413 44.7607 45.4146 44.65 45.3886 44.5443L43.7229 37.7837C43.7158 37.755 43.7067 37.7268 43.6957 37.6993C43.6938 37.6947 43.6912 37.6904 43.6892 37.6857C43.6764 37.6563 43.6615 37.628 43.6445 37.6008C43.639 37.592 43.6339 37.5833 43.6273 37.5747C43.6061 37.5434 43.5822 37.5141 43.5559 37.4871L14.8184 8.74953C14.4255 8.35406 13.9585 8.04001 13.4441 7.82541C12.9296 7.6108 12.3779 7.49984 11.8204 7.49891C11.263 7.49797 10.7109 7.60707 10.1957 7.81995C9.68055 8.03283 9.21247 8.34531 8.81831 8.73946C8.42415 9.13361 8.11167 9.60169 7.89878 10.1169C7.68589 10.632 7.57678 11.1841 7.5777 11.7416C7.57863 12.299 7.68957 12.8507 7.90417 13.3652C8.11877 13.8796 8.43281 14.3467 8.82828 14.7395L37.5663 43.4774C37.5933 43.5038 37.6226 43.5278 37.6538 43.549ZM43.9098 43.8309L39.2545 42.6839L42.7628 39.1757L43.9098 43.8309ZM42.2139 37.9352L40.5612 39.5879L16.6267 15.6531L18.2794 14.0004L42.2139 37.9352ZM9.72318 13.8446C9.17152 13.2865 8.86316 12.5328 8.86545 11.748C8.86774 10.9633 9.1805 10.2113 9.73541 9.65646C10.2903 9.10158 11.0423 8.78885 11.827 8.7866C12.6118 8.78435 13.3655 9.09275 13.9236 9.64443L15.2753 10.9961L11.075 15.1963L9.72318 13.8446ZM11.9697 16.0911L16.1698 11.8909L17.3844 13.1054L15.2845 15.2053L13.1847 17.3051L11.9697 16.0911ZM15.7316 16.5479L39.6668 40.4824L38.0137 42.1348L14.0792 18.2006L15.7316 16.5479Z" fill="#992AF5"/>
</svg>
