<svg width="54" height="54" viewBox="0 0 54 54" fill="none" xmlns="http://www.w3.org/2000/svg">
<path d="M16.8149 9.47531V7.19191C16.8149 6.01178 17.2837 4.87999 18.1182 4.04551C18.9527 3.21103 20.0845 2.74222 21.2646 2.74219H18.1005C16.9204 2.74222 15.7886 3.21103 14.9541 4.04551C14.1197 4.87999 13.6508 6.01178 13.6508 7.19191V46.8081C13.6508 47.9882 14.1197 49.12 14.9541 49.9545C15.7886 50.789 16.9204 51.2578 18.1005 51.2578H21.2646C20.0845 51.2578 18.9527 50.789 18.1182 49.9545C17.2837 49.12 16.8149 47.9882 16.8149 46.8081V9.47531Z" fill="#D4E1F4"/>
<path d="M20.5147 8.84253C20.3469 8.84253 20.1859 8.9092 20.0673 9.02788C19.9486 9.14655 19.8819 9.30751 19.8819 9.47534C19.8819 9.64317 19.9486 9.80413 20.0673 9.92281C20.1859 10.0415 20.3469 10.1082 20.5147 10.1082H40.349V8.84253H20.5147Z" fill="#992AF5"/>
<path d="M18.2278 10.1082H18.2495C18.4173 10.1082 18.5783 10.0415 18.6969 9.92281C18.8156 9.80413 18.8823 9.64317 18.8823 9.47534C18.8823 9.30751 18.8156 9.14655 18.6969 9.02788C18.5783 8.9092 18.4173 8.84253 18.2495 8.84253H18.2278C18.06 8.84253 17.8991 8.9092 17.7804 9.02788C17.6617 9.14655 17.595 9.30751 17.595 9.47534C17.595 9.64317 17.6617 9.80413 17.7804 9.92281C17.8991 10.0415 18.06 10.1082 18.2278 10.1082Z" fill="#992AF5"/>
<path d="M16.6524 9.47534C16.6524 9.30751 16.5857 9.14655 16.467 9.02788C16.3483 8.9092 16.1874 8.84253 16.0195 8.84253H13.6509V10.1082H16.0195C16.1874 10.1082 16.3483 10.0415 16.467 9.92281C16.5857 9.80413 16.6524 9.64317 16.6524 9.47534Z" fill="#992AF5"/>
<path d="M13.6509 40.9469H40.349V42.2125H13.6509V40.9469Z" fill="#992AF5"/>
<path d="M29.1039 21.074L20.3534 29.927C20.2949 29.9861 20.2487 30.0561 20.2174 30.1331C20.186 30.2101 20.1701 30.2925 20.1706 30.3756C20.1711 30.4587 20.188 30.5409 20.2202 30.6175C20.2525 30.694 20.2995 30.7635 20.3586 30.822C20.4177 30.8804 20.4877 30.9266 20.5647 30.9579C20.6416 30.9893 20.724 31.0052 20.8071 31.0047C20.8902 31.0042 20.9724 30.9874 21.049 30.9551C21.1256 30.9229 21.1951 30.8758 21.2535 30.8167L30.0041 21.9637C30.1221 21.8443 30.1878 21.683 30.1868 21.5151C30.1858 21.3473 30.1182 21.1867 29.9988 21.0687C29.8795 20.9508 29.7181 20.885 29.5503 20.886C29.3825 20.887 29.2219 20.9546 29.1039 21.074Z" fill="#992AF5"/>
<path d="M26.1668 29.7645C26.2855 29.8832 26.4464 29.9499 26.6143 29.9499C26.7821 29.9499 26.943 29.8832 27.0617 29.7645L31.5345 25.2914C31.6516 25.1724 31.717 25.012 31.7163 24.845C31.7156 24.6781 31.649 24.5182 31.531 24.4001C31.413 24.2821 31.2531 24.2154 31.0861 24.2147C30.9192 24.214 30.7587 24.2793 30.6397 24.3964L26.1668 28.8697C26.0482 28.9884 25.9815 29.1493 25.9815 29.3171C25.9815 29.4849 26.0482 29.6459 26.1668 29.7645Z" fill="#992AF5"/>
<path d="M27 44.4459C26.6548 44.4459 26.3174 44.5483 26.0304 44.7401C25.7433 44.9318 25.5196 45.2044 25.3875 45.5233C25.2554 45.8423 25.2209 46.1932 25.2882 46.5318C25.3556 46.8703 25.5218 47.1813 25.7659 47.4254C26.01 47.6694 26.321 47.8357 26.6596 47.903C26.9981 47.9703 27.3491 47.9357 27.668 47.8036C27.9869 47.6715 28.2594 47.4478 28.4512 47.1608C28.643 46.8738 28.7453 46.5363 28.7453 46.1911C28.7448 45.7284 28.5607 45.2848 28.2335 44.9576C27.9063 44.6305 27.4627 44.4464 27 44.4459ZM27 46.6708C26.9051 46.6708 26.8124 46.6427 26.7335 46.5899C26.6546 46.5372 26.5931 46.4623 26.5568 46.3747C26.5205 46.287 26.511 46.1906 26.5295 46.0975C26.5481 46.0045 26.5937 45.919 26.6608 45.8519C26.7279 45.7849 26.8134 45.7392 26.9064 45.7207C26.9995 45.7022 27.0959 45.7117 27.1836 45.748C27.2712 45.7843 27.3461 45.8457 27.3988 45.9246C27.4515 46.0035 27.4797 46.0962 27.4797 46.1911C27.4795 46.3183 27.4289 46.4402 27.339 46.5301C27.2491 46.6201 27.1272 46.6706 27 46.6708Z" fill="#992AF5"/>
<path d="M35.8993 2.10938H18.1007C16.7532 2.11088 15.4613 2.64683 14.5085 3.59964C13.5556 4.55246 13.0196 5.84432 13.0181 7.19181V46.8082C13.0196 48.1557 13.5556 49.4475 14.5085 50.4004C15.4613 51.3532 16.7532 51.8891 18.1007 51.8906H35.8993C37.2468 51.8891 38.5387 51.3531 39.4915 50.4003C40.4443 49.4475 40.9802 48.1557 40.9818 46.8082V7.19181C40.9802 5.84433 40.4443 4.55249 39.4915 3.59968C38.5387 2.64687 37.2468 2.11091 35.8993 2.10938ZM39.7162 46.8082C39.715 47.8201 39.3125 48.7903 38.597 49.5058C37.8814 50.2214 36.9113 50.6239 35.8993 50.625H18.1007C17.0887 50.6239 16.1185 50.2214 15.403 49.5059C14.6874 48.7903 14.2849 47.8201 14.2837 46.8082V7.19181C14.2849 6.17986 14.6874 5.20969 15.403 4.49414C16.1185 3.7786 17.0887 3.37612 18.1007 3.375H35.8993C36.9113 3.37614 37.8814 3.77864 38.597 4.49418C39.3125 5.20972 39.715 6.17988 39.7162 7.19181V46.8082Z" fill="#992AF5"/>
</svg>